<svg xmlns="http://www.w3.org/2000/svg" version="1.1" xmlns:xlink="http://www.w3.org/1999/xlink" xmlns:svgjs="http://svgjs.com/svgjs" width="1440" height="560" preserveAspectRatio="none" viewBox="0 0 1440 560">
    <g mask="url(&quot;#SvgjsMask2163&quot;)" fill="none">
        <rect width="1440" height="560" x="0" y="0" fill="url(#SvgjsLinearGradient2164)"></rect>
        <path d="M-44.23 352.94L-44.23 352.94" stroke="rgba(239, 150, 229, 1)" stroke-width="1.5"></path>
        <path d="M-44.23 352.94L82.39 354.57" stroke="rgba(239, 150, 229, 1)" stroke-width="1.5"></path>
        <path d="M-44.23 352.94L-43.17 520.65" stroke="rgba(239, 150, 229, 1)" stroke-width="1.5"></path>
        <path d="M-44.23 352.94L39.39 541.55" stroke="rgba(239, 150, 229, 1)" stroke-width="1.5"></path>
        <path d="M-43.17 520.65L-43.17 520.65" stroke="rgba(239, 150, 229, 1)" stroke-width="1.5"></path>
        <path d="M-43.17 520.65L39.39 541.55" stroke="rgba(239, 150, 229, 1)" stroke-width="1.5"></path>
        <path d="M-73.76 697.97L-73.76 697.97" stroke="rgba(239, 150, 229, 1)" stroke-width="1.5"></path>
        <path d="M-73.76 697.97L70.13 668.01" stroke="rgba(239, 150, 229, 1)" stroke-width="1.5"></path>
        <path d="M-73.76 697.97L-43.17 520.65" stroke="rgba(239, 150, 229, 1)" stroke-width="1.5"></path>
        <path d="M-73.76 697.97L39.39 541.55" stroke="rgba(239, 150, 229, 1)" stroke-width="1.5"></path>
        <path d="M-73.76 697.97L-44.23 352.94" stroke="rgba(239, 150, 229, 1)" stroke-width="1.5"></path>
        <path d="M82.39 354.57L82.39 354.57" stroke="rgba(239, 150, 229, 1)" stroke-width="1.5"></path>
        <path d="M82.39 354.57L233.78 397.21" stroke="rgba(239, 150, 229, 1)" stroke-width="1.5"></path>
        <path d="M82.39 354.57L39.39 541.55" stroke="rgba(239, 150, 229, 1)" stroke-width="1.5"></path>
        <path d="M39.39 541.55L39.39 541.55" stroke="rgba(239, 150, 229, 1)" stroke-width="1.5"></path>
        <path d="M39.39 541.55L70.13 668.01" stroke="rgba(239, 150, 229, 1)" stroke-width="1.5"></path>
        <path d="M70.13 668.01L70.13 668.01" stroke="rgba(239, 150, 229, 1)" stroke-width="1.5"></path>
        <path d="M70.13 668.01L-43.17 520.65" stroke="rgba(239, 150, 229, 1)" stroke-width="1.5"></path>
        <path d="M70.13 668.01L242.34 555.83" stroke="rgba(239, 150, 229, 1)" stroke-width="1.5"></path>
        <path d="M70.13 668.01L82.39 354.57" stroke="rgba(239, 150, 229, 1)" stroke-width="1.5"></path>
        <path d="M70.13 668.01L233.78 397.21" stroke="rgba(239, 150, 229, 1)" stroke-width="1.5"></path>
        <path d="M233.78 397.21L233.78 397.21" stroke="rgba(239, 150, 229, 1)" stroke-width="1.5"></path>
        <path d="M233.78 397.21L345.95 372.53" stroke="rgba(239, 150, 229, 1)" stroke-width="1.5"></path>
        <path d="M233.78 397.21L242.34 555.83" stroke="rgba(239, 150, 229, 1)" stroke-width="1.5"></path>
        <path d="M233.78 397.21L383.71 559.45" stroke="rgba(239, 150, 229, 1)" stroke-width="1.5"></path>
        <path d="M242.34 555.83L242.34 555.83" stroke="rgba(239, 150, 229, 1)" stroke-width="1.5"></path>
        <path d="M242.34 555.83L383.71 559.45" stroke="rgba(239, 150, 229, 1)" stroke-width="1.5"></path>
        <path d="M242.34 555.83L405.93 664.26" stroke="rgba(239, 150, 229, 1)" stroke-width="1.5"></path>
        <path d="M242.34 555.83L39.39 541.55" stroke="rgba(239, 150, 229, 1)" stroke-width="1.5"></path>
        <path d="M345.95 372.53L345.95 372.53" stroke="rgba(239, 150, 229, 1)" stroke-width="1.5"></path>
        <path d="M345.95 372.53L383.71 559.45" stroke="rgba(239, 150, 229, 1)" stroke-width="1.5"></path>
        <path d="M345.95 372.53L555.29 360.24" stroke="rgba(239, 150, 229, 1)" stroke-width="1.5"></path>
        <path d="M345.95 372.53L242.34 555.83" stroke="rgba(239, 150, 229, 1)" stroke-width="1.5"></path>
        <path d="M345.95 372.53L518.82 546.11" stroke="rgba(239, 150, 229, 1)" stroke-width="1.5"></path>
        <path d="M383.71 559.45L383.71 559.45" stroke="rgba(239, 150, 229, 1)" stroke-width="1.5"></path>
        <path d="M383.71 559.45L405.93 664.26" stroke="rgba(239, 150, 229, 1)" stroke-width="1.5"></path>
        <path d="M383.71 559.45L518.82 546.11" stroke="rgba(239, 150, 229, 1)" stroke-width="1.5"></path>
        <path d="M405.93 664.26L405.93 664.26" stroke="rgba(239, 150, 229, 1)" stroke-width="1.5"></path>
        <path d="M405.93 664.26L497.63 687.62" stroke="rgba(239, 150, 229, 1)" stroke-width="1.5"></path>
        <path d="M405.93 664.26L518.82 546.11" stroke="rgba(239, 150, 229, 1)" stroke-width="1.5"></path>
        <path d="M555.29 360.24L555.29 360.24" stroke="rgba(239, 150, 229, 1)" stroke-width="1.5"></path>
        <path d="M555.29 360.24L640.66 375.77" stroke="rgba(239, 150, 229, 1)" stroke-width="1.5"></path>
        <path d="M555.29 360.24L518.82 546.11" stroke="rgba(239, 150, 229, 1)" stroke-width="1.5"></path>
        <path d="M555.29 360.24L694.26 490.24" stroke="rgba(239, 150, 229, 1)" stroke-width="1.5"></path>
        <path d="M555.29 360.24L791.19 395.68" stroke="rgba(239, 150, 229, 1)" stroke-width="1.5"></path>
        <path d="M518.82 546.11L518.82 546.11" stroke="rgba(239, 150, 229, 1)" stroke-width="1.5"></path>
        <path d="M518.82 546.11L497.63 687.62" stroke="rgba(239, 150, 229, 1)" stroke-width="1.5"></path>
        <path d="M518.82 546.11L694.26 490.24" stroke="rgba(239, 150, 229, 1)" stroke-width="1.5"></path>
        <path d="M497.63 687.62L497.63 687.62" stroke="rgba(239, 150, 229, 1)" stroke-width="1.5"></path>
        <path d="M497.63 687.62L383.71 559.45" stroke="rgba(239, 150, 229, 1)" stroke-width="1.5"></path>
        <path d="M497.63 687.62L679.14 669.99" stroke="rgba(239, 150, 229, 1)" stroke-width="1.5"></path>
        <path d="M497.63 687.62L694.26 490.24" stroke="rgba(239, 150, 229, 1)" stroke-width="1.5"></path>
        <path d="M497.63 687.62L242.34 555.83" stroke="rgba(239, 150, 229, 1)" stroke-width="1.5"></path>
        <path d="M640.66 375.77L640.66 375.77" stroke="rgba(239, 150, 229, 1)" stroke-width="1.5"></path>
        <path d="M640.66 375.77L694.26 490.24" stroke="rgba(239, 150, 229, 1)" stroke-width="1.5"></path>
        <path d="M640.66 375.77L791.19 395.68" stroke="rgba(239, 150, 229, 1)" stroke-width="1.5"></path>
        <path d="M640.66 375.77L518.82 546.11" stroke="rgba(239, 150, 229, 1)" stroke-width="1.5"></path>
        <path d="M640.66 375.77L839.72 200.78" stroke="rgba(239, 150, 229, 1)" stroke-width="1.5"></path>
        <path d="M694.26 490.24L694.26 490.24" stroke="rgba(239, 150, 229, 1)" stroke-width="1.5"></path>
        <path d="M694.26 490.24L791.19 395.68" stroke="rgba(239, 150, 229, 1)" stroke-width="1.5"></path>
        <path d="M694.26 490.24L852.74 539.61" stroke="rgba(239, 150, 229, 1)" stroke-width="1.5"></path>
        <path d="M694.26 490.24L679.14 669.99" stroke="rgba(239, 150, 229, 1)" stroke-width="1.5"></path>
        <path d="M679.14 669.99L679.14 669.99" stroke="rgba(239, 150, 229, 1)" stroke-width="1.5"></path>
        <path d="M679.14 669.99L852.5 657.42" stroke="rgba(239, 150, 229, 1)" stroke-width="1.5"></path>
        <path d="M679.14 669.99L518.82 546.11" stroke="rgba(239, 150, 229, 1)" stroke-width="1.5"></path>
        <path d="M679.14 669.99L852.74 539.61" stroke="rgba(239, 150, 229, 1)" stroke-width="1.5"></path>
        <path d="M679.14 669.99L405.93 664.26" stroke="rgba(239, 150, 229, 1)" stroke-width="1.5"></path>
        <path d="M839.72 200.78L839.72 200.78" stroke="rgba(239, 150, 229, 1)" stroke-width="1.5"></path>
        <path d="M839.72 200.78L984.89 221.97" stroke="rgba(239, 150, 229, 1)" stroke-width="1.5"></path>
        <path d="M839.72 200.78L989.36 71.87" stroke="rgba(239, 150, 229, 1)" stroke-width="1.5"></path>
        <path d="M839.72 200.78L791.19 395.68" stroke="rgba(239, 150, 229, 1)" stroke-width="1.5"></path>
        <path d="M791.19 395.68L791.19 395.68" stroke="rgba(239, 150, 229, 1)" stroke-width="1.5"></path>
        <path d="M791.19 395.68L852.74 539.61" stroke="rgba(239, 150, 229, 1)" stroke-width="1.5"></path>
        <path d="M791.19 395.68L976.27 410.6" stroke="rgba(239, 150, 229, 1)" stroke-width="1.5"></path>
        <path d="M852.74 539.61L852.74 539.61" stroke="rgba(239, 150, 229, 1)" stroke-width="1.5"></path>
        <path d="M852.74 539.61L852.5 657.42" stroke="rgba(239, 150, 229, 1)" stroke-width="1.5"></path>
        <path d="M852.74 539.61L1005.9 506.81" stroke="rgba(239, 150, 229, 1)" stroke-width="1.5"></path>
        <path d="M852.74 539.61L979.32 639.26" stroke="rgba(239, 150, 229, 1)" stroke-width="1.5"></path>
        <path d="M852.5 657.42L852.5 657.42" stroke="rgba(239, 150, 229, 1)" stroke-width="1.5"></path>
        <path d="M852.5 657.42L979.32 639.26" stroke="rgba(239, 150, 229, 1)" stroke-width="1.5"></path>
        <path d="M943.9 -88.87L943.9 -88.87" stroke="rgba(239, 150, 229, 1)" stroke-width="1.5"></path>
        <path d="M943.9 -88.87L989.36 71.87" stroke="rgba(239, 150, 229, 1)" stroke-width="1.5"></path>
        <path d="M943.9 -88.87L1144.69 -46.45" stroke="rgba(239, 150, 229, 1)" stroke-width="1.5"></path>
        <path d="M989.36 71.87L989.36 71.87" stroke="rgba(239, 150, 229, 1)" stroke-width="1.5"></path>
        <path d="M989.36 71.87L1119.75 50.8" stroke="rgba(239, 150, 229, 1)" stroke-width="1.5"></path>
        <path d="M989.36 71.87L984.89 221.97" stroke="rgba(239, 150, 229, 1)" stroke-width="1.5"></path>
        <path d="M989.36 71.87L1144.69 -46.45" stroke="rgba(239, 150, 229, 1)" stroke-width="1.5"></path>
        <path d="M989.36 71.87L1130.31 236.5" stroke="rgba(239, 150, 229, 1)" stroke-width="1.5"></path>
        <path d="M984.89 221.97L984.89 221.97" stroke="rgba(239, 150, 229, 1)" stroke-width="1.5"></path>
        <path d="M984.89 221.97L1130.31 236.5" stroke="rgba(239, 150, 229, 1)" stroke-width="1.5"></path>
        <path d="M984.89 221.97L976.27 410.6" stroke="rgba(239, 150, 229, 1)" stroke-width="1.5"></path>
        <path d="M984.89 221.97L1105.53 398.55" stroke="rgba(239, 150, 229, 1)" stroke-width="1.5"></path>
        <path d="M984.89 221.97L1119.75 50.8" stroke="rgba(239, 150, 229, 1)" stroke-width="1.5"></path>
        <path d="M976.27 410.6L976.27 410.6" stroke="rgba(239, 150, 229, 1)" stroke-width="1.5"></path>
        <path d="M976.27 410.6L1005.9 506.81" stroke="rgba(239, 150, 229, 1)" stroke-width="1.5"></path>
        <path d="M976.27 410.6L1105.53 398.55" stroke="rgba(239, 150, 229, 1)" stroke-width="1.5"></path>
        <path d="M976.27 410.6L1111.14 490.97" stroke="rgba(239, 150, 229, 1)" stroke-width="1.5"></path>
        <path d="M976.27 410.6L852.74 539.61" stroke="rgba(239, 150, 229, 1)" stroke-width="1.5"></path>
        <path d="M1005.9 506.81L1005.9 506.81" stroke="rgba(239, 150, 229, 1)" stroke-width="1.5"></path>
        <path d="M979.32 639.26L979.32 639.26" stroke="rgba(239, 150, 229, 1)" stroke-width="1.5"></path>
        <path d="M979.32 639.26L1005.9 506.81" stroke="rgba(239, 150, 229, 1)" stroke-width="1.5"></path>
        <path d="M979.32 639.26L1109.83 697.57" stroke="rgba(239, 150, 229, 1)" stroke-width="1.5"></path>
        <path d="M1144.69 -46.45L1144.69 -46.45" stroke="rgba(239, 150, 229, 1)" stroke-width="1.5"></path>
        <path d="M1144.69 -46.45L1119.75 50.8" stroke="rgba(239, 150, 229, 1)" stroke-width="1.5"></path>
        <path d="M1144.69 -46.45L1244.47 43.2" stroke="rgba(239, 150, 229, 1)" stroke-width="1.5"></path>
        <path d="M1144.69 -46.45L1290.25 -79.87" stroke="rgba(239, 150, 229, 1)" stroke-width="1.5"></path>
        <path d="M1119.75 50.8L1119.75 50.8" stroke="rgba(239, 150, 229, 1)" stroke-width="1.5"></path>
        <path d="M1130.31 236.5L1130.31 236.5" stroke="rgba(239, 150, 229, 1)" stroke-width="1.5"></path>
        <path d="M1130.31 236.5L1105.53 398.55" stroke="rgba(239, 150, 229, 1)" stroke-width="1.5"></path>
        <path d="M1130.31 236.5L1306.95 191.45" stroke="rgba(239, 150, 229, 1)" stroke-width="1.5"></path>
        <path d="M1130.31 236.5L1119.75 50.8" stroke="rgba(239, 150, 229, 1)" stroke-width="1.5"></path>
        <path d="M1130.31 236.5L1299.95 378.39" stroke="rgba(239, 150, 229, 1)" stroke-width="1.5"></path>
        <path d="M1105.53 398.55L1105.53 398.55" stroke="rgba(239, 150, 229, 1)" stroke-width="1.5"></path>
        <path d="M1105.53 398.55L1111.14 490.97" stroke="rgba(239, 150, 229, 1)" stroke-width="1.5"></path>
        <path d="M1105.53 398.55L1005.9 506.81" stroke="rgba(239, 150, 229, 1)" stroke-width="1.5"></path>
        <path d="M1105.53 398.55L1299.95 378.39" stroke="rgba(239, 150, 229, 1)" stroke-width="1.5"></path>
        <path d="M1111.14 490.97L1111.14 490.97" stroke="rgba(239, 150, 229, 1)" stroke-width="1.5"></path>
        <path d="M1109.83 697.57L1109.83 697.57" stroke="rgba(239, 150, 229, 1)" stroke-width="1.5"></path>
        <path d="M1109.83 697.57L1255.09 664.38" stroke="rgba(239, 150, 229, 1)" stroke-width="1.5"></path>
        <path d="M1109.83 697.57L1111.14 490.97" stroke="rgba(239, 150, 229, 1)" stroke-width="1.5"></path>
        <path d="M1109.83 697.57L1005.9 506.81" stroke="rgba(239, 150, 229, 1)" stroke-width="1.5"></path>
        <path d="M1109.83 697.57L1297.83 557.69" stroke="rgba(239, 150, 229, 1)" stroke-width="1.5"></path>
        <path d="M1290.25 -79.87L1290.25 -79.87" stroke="rgba(239, 150, 229, 1)" stroke-width="1.5"></path>
        <path d="M1290.25 -79.87L1244.47 43.2" stroke="rgba(239, 150, 229, 1)" stroke-width="1.5"></path>
        <path d="M1290.25 -79.87L1440.51 -75.59" stroke="rgba(239, 150, 229, 1)" stroke-width="1.5"></path>
        <path d="M1290.25 -79.87L1402.22 70.22" stroke="rgba(239, 150, 229, 1)" stroke-width="1.5"></path>
        <path d="M1290.25 -79.87L1119.75 50.8" stroke="rgba(239, 150, 229, 1)" stroke-width="1.5"></path>
        <path d="M1244.47 43.2L1244.47 43.2" stroke="rgba(239, 150, 229, 1)" stroke-width="1.5"></path>
        <path d="M1244.47 43.2L1119.75 50.8" stroke="rgba(239, 150, 229, 1)" stroke-width="1.5"></path>
        <path d="M1244.47 43.2L1402.22 70.22" stroke="rgba(239, 150, 229, 1)" stroke-width="1.5"></path>
        <path d="M1244.47 43.2L1306.95 191.45" stroke="rgba(239, 150, 229, 1)" stroke-width="1.5"></path>
        <path d="M1306.95 191.45L1306.95 191.45" stroke="rgba(239, 150, 229, 1)" stroke-width="1.5"></path>
        <path d="M1306.95 191.45L1408.15 220.45" stroke="rgba(239, 150, 229, 1)" stroke-width="1.5"></path>
        <path d="M1306.95 191.45L1402.22 70.22" stroke="rgba(239, 150, 229, 1)" stroke-width="1.5"></path>
        <path d="M1299.95 378.39L1299.95 378.39" stroke="rgba(239, 150, 229, 1)" stroke-width="1.5"></path>
        <path d="M1299.95 378.39L1425.04 396.4" stroke="rgba(239, 150, 229, 1)" stroke-width="1.5"></path>
        <path d="M1299.95 378.39L1405.97 501.42" stroke="rgba(239, 150, 229, 1)" stroke-width="1.5"></path>
        <path d="M1299.95 378.39L1297.83 557.69" stroke="rgba(239, 150, 229, 1)" stroke-width="1.5"></path>
        <path d="M1297.83 557.69L1297.83 557.69" stroke="rgba(239, 150, 229, 1)" stroke-width="1.5"></path>
        <path d="M1297.83 557.69L1255.09 664.38" stroke="rgba(239, 150, 229, 1)" stroke-width="1.5"></path>
        <path d="M1297.83 557.69L1405.97 501.42" stroke="rgba(239, 150, 229, 1)" stroke-width="1.5"></path>
        <path d="M1255.09 664.38L1255.09 664.38" stroke="rgba(239, 150, 229, 1)" stroke-width="1.5"></path>
        <path d="M1255.09 664.38L1454.88 693.14" stroke="rgba(239, 150, 229, 1)" stroke-width="1.5"></path>
        <path d="M1255.09 664.38L1405.97 501.42" stroke="rgba(239, 150, 229, 1)" stroke-width="1.5"></path>
        <path d="M1255.09 664.38L1111.14 490.97" stroke="rgba(239, 150, 229, 1)" stroke-width="1.5"></path>
        <path d="M1440.51 -75.59L1440.51 -75.59" stroke="rgba(239, 150, 229, 1)" stroke-width="1.5"></path>
        <path d="M1440.51 -75.59L1587.8 -78.34" stroke="rgba(239, 150, 229, 1)" stroke-width="1.5"></path>
        <path d="M1440.51 -75.59L1402.22 70.22" stroke="rgba(239, 150, 229, 1)" stroke-width="1.5"></path>
        <path d="M1440.51 -75.59L1612.46 57.97" stroke="rgba(239, 150, 229, 1)" stroke-width="1.5"></path>
        <path d="M1440.51 -75.59L1244.47 43.2" stroke="rgba(239, 150, 229, 1)" stroke-width="1.5"></path>
        <path d="M1440.51 -75.59L1144.69 -46.45" stroke="rgba(239, 150, 229, 1)" stroke-width="1.5"></path>
        <path d="M1402.22 70.22L1402.22 70.22" stroke="rgba(239, 150, 229, 1)" stroke-width="1.5"></path>
        <path d="M1402.22 70.22L1408.15 220.45" stroke="rgba(239, 150, 229, 1)" stroke-width="1.5"></path>
        <path d="M1408.15 220.45L1408.15 220.45" stroke="rgba(239, 150, 229, 1)" stroke-width="1.5"></path>
        <path d="M1425.04 396.4L1425.04 396.4" stroke="rgba(239, 150, 229, 1)" stroke-width="1.5"></path>
        <path d="M1425.04 396.4L1405.97 501.42" stroke="rgba(239, 150, 229, 1)" stroke-width="1.5"></path>
        <path d="M1405.97 501.42L1405.97 501.42" stroke="rgba(239, 150, 229, 1)" stroke-width="1.5"></path>
        <path d="M1405.97 501.42L1552.65 397.72" stroke="rgba(239, 150, 229, 1)" stroke-width="1.5"></path>
        <path d="M1405.97 501.42L1598.08 538.48" stroke="rgba(239, 150, 229, 1)" stroke-width="1.5"></path>
        <path d="M1454.88 693.14L1454.88 693.14" stroke="rgba(239, 150, 229, 1)" stroke-width="1.5"></path>
        <path d="M1454.88 693.14L1594.52 658.43" stroke="rgba(239, 150, 229, 1)" stroke-width="1.5"></path>
        <path d="M1454.88 693.14L1405.97 501.42" stroke="rgba(239, 150, 229, 1)" stroke-width="1.5"></path>
        <path d="M1454.88 693.14L1297.83 557.69" stroke="rgba(239, 150, 229, 1)" stroke-width="1.5"></path>
        <path d="M1454.88 693.14L1598.08 538.48" stroke="rgba(239, 150, 229, 1)" stroke-width="1.5"></path>
        <path d="M1454.88 693.14L1425.04 396.4" stroke="rgba(239, 150, 229, 1)" stroke-width="1.5"></path>
        <path d="M1587.8 -78.34L1587.8 -78.34" stroke="rgba(239, 150, 229, 1)" stroke-width="1.5"></path>
        <path d="M1587.8 -78.34L1612.46 57.97" stroke="rgba(239, 150, 229, 1)" stroke-width="1.5"></path>
        <path d="M1612.46 57.97L1612.46 57.97" stroke="rgba(239, 150, 229, 1)" stroke-width="1.5"></path>
        <path d="M1612.46 57.97L1582.69 191.18" stroke="rgba(239, 150, 229, 1)" stroke-width="1.5"></path>
        <path d="M1612.46 57.97L1402.22 70.22" stroke="rgba(239, 150, 229, 1)" stroke-width="1.5"></path>
        <path d="M1582.69 191.18L1582.69 191.18" stroke="rgba(239, 150, 229, 1)" stroke-width="1.5"></path>
        <path d="M1582.69 191.18L1408.15 220.45" stroke="rgba(239, 150, 229, 1)" stroke-width="1.5"></path>
        <path d="M1552.65 397.72L1552.65 397.72" stroke="rgba(239, 150, 229, 1)" stroke-width="1.5"></path>
        <path d="M1552.65 397.72L1425.04 396.4" stroke="rgba(239, 150, 229, 1)" stroke-width="1.5"></path>
        <path d="M1552.65 397.72L1598.08 538.48" stroke="rgba(239, 150, 229, 1)" stroke-width="1.5"></path>
        <path d="M1552.65 397.72L1582.69 191.18" stroke="rgba(239, 150, 229, 1)" stroke-width="1.5"></path>
        <path d="M1552.65 397.72L1408.15 220.45" stroke="rgba(239, 150, 229, 1)" stroke-width="1.5"></path>
        <path d="M1598.08 538.48L1598.08 538.48" stroke="rgba(239, 150, 229, 1)" stroke-width="1.5"></path>
        <path d="M1598.08 538.48L1594.52 658.43" stroke="rgba(239, 150, 229, 1)" stroke-width="1.5"></path>
        <path d="M1594.52 658.43L1594.52 658.43" stroke="rgba(239, 150, 229, 1)" stroke-width="1.5"></path>
        <path d="M1594.52 658.43L1405.97 501.42" stroke="rgba(239, 150, 229, 1)" stroke-width="1.5"></path>
        <path d="M1594.52 658.43L1552.65 397.72" stroke="rgba(239, 150, 229, 1)" stroke-width="1.5"></path>
        <path d="M1594.52 658.43L1425.04 396.4" stroke="rgba(239, 150, 229, 1)" stroke-width="1.5"></path>
        <circle r="5" cx="-44.23" cy="352.94" fill="rgba(239, 150, 229, 1)"></circle>
        <circle r="5" cx="-43.17" cy="520.65" fill="rgba(239, 150, 229, 1)"></circle>
        <circle r="5" cx="-73.76" cy="697.97" fill="rgba(239, 150, 229, 1)"></circle>
        <circle r="5" cx="82.39" cy="354.57" fill="rgba(239, 150, 229, 1)"></circle>
        <circle r="5" cx="39.39" cy="541.55" fill="rgba(239, 150, 229, 1)"></circle>
        <circle r="5" cx="70.13" cy="668.01" fill="rgba(239, 150, 229, 1)"></circle>
        <circle r="5" cx="233.78" cy="397.21" fill="rgba(239, 150, 229, 1)"></circle>
        <circle r="5" cx="242.34" cy="555.83" fill="rgba(239, 150, 229, 1)"></circle>
        <circle r="5" cx="345.95" cy="372.53" fill="rgba(239, 150, 229, 1)"></circle>
        <circle r="5" cx="383.71" cy="559.45" fill="rgba(239, 150, 229, 1)"></circle>
        <circle r="5" cx="405.93" cy="664.26" fill="rgba(239, 150, 229, 1)"></circle>
        <circle r="5" cx="555.29" cy="360.24" fill="rgba(239, 150, 229, 1)"></circle>
        <circle r="5" cx="518.82" cy="546.11" fill="rgba(239, 150, 229, 1)"></circle>
        <circle r="5" cx="497.63" cy="687.62" fill="rgba(239, 150, 229, 1)"></circle>
        <circle r="5" cx="640.66" cy="375.77" fill="rgba(239, 150, 229, 1)"></circle>
        <circle r="5" cx="694.26" cy="490.24" fill="rgba(239, 150, 229, 1)"></circle>
        <circle r="5" cx="679.14" cy="669.99" fill="rgba(239, 150, 229, 1)"></circle>
        <circle r="5" cx="839.72" cy="200.78" fill="rgba(239, 150, 229, 1)"></circle>
        <circle r="5" cx="791.19" cy="395.68" fill="rgba(239, 150, 229, 1)"></circle>
        <circle r="5" cx="852.74" cy="539.61" fill="rgba(239, 150, 229, 1)"></circle>
        <circle r="5" cx="852.5" cy="657.42" fill="rgba(239, 150, 229, 1)"></circle>
        <circle r="5" cx="943.9" cy="-88.87" fill="rgba(239, 150, 229, 1)"></circle>
        <circle r="5" cx="989.36" cy="71.87" fill="rgba(239, 150, 229, 1)"></circle>
        <circle r="5" cx="984.89" cy="221.97" fill="rgba(239, 150, 229, 1)"></circle>
        <circle r="5" cx="976.27" cy="410.6" fill="rgba(239, 150, 229, 1)"></circle>
        <circle r="5" cx="1005.9" cy="506.81" fill="rgba(239, 150, 229, 1)"></circle>
        <circle r="5" cx="979.32" cy="639.26" fill="rgba(239, 150, 229, 1)"></circle>
        <circle r="5" cx="1144.69" cy="-46.45" fill="rgba(239, 150, 229, 1)"></circle>
        <circle r="5" cx="1119.75" cy="50.8" fill="rgba(239, 150, 229, 1)"></circle>
        <circle r="5" cx="1130.31" cy="236.5" fill="rgba(239, 150, 229, 1)"></circle>
        <circle r="5" cx="1105.53" cy="398.55" fill="rgba(239, 150, 229, 1)"></circle>
        <circle r="5" cx="1111.14" cy="490.97" fill="rgba(239, 150, 229, 1)"></circle>
        <circle r="5" cx="1109.83" cy="697.57" fill="rgba(239, 150, 229, 1)"></circle>
        <circle r="5" cx="1290.25" cy="-79.87" fill="rgba(239, 150, 229, 1)"></circle>
        <circle r="5" cx="1244.47" cy="43.2" fill="rgba(239, 150, 229, 1)"></circle>
        <circle r="5" cx="1306.95" cy="191.45" fill="rgba(239, 150, 229, 1)"></circle>
        <circle r="5" cx="1299.95" cy="378.39" fill="rgba(239, 150, 229, 1)"></circle>
        <circle r="5" cx="1297.83" cy="557.69" fill="rgba(239, 150, 229, 1)"></circle>
        <circle r="5" cx="1255.09" cy="664.38" fill="rgba(239, 150, 229, 1)"></circle>
        <circle r="5" cx="1440.51" cy="-75.59" fill="rgba(239, 150, 229, 1)"></circle>
        <circle r="5" cx="1402.22" cy="70.22" fill="rgba(239, 150, 229, 1)"></circle>
        <circle r="5" cx="1408.15" cy="220.45" fill="rgba(239, 150, 229, 1)"></circle>
        <circle r="5" cx="1425.04" cy="396.4" fill="rgba(239, 150, 229, 1)"></circle>
        <circle r="5" cx="1405.97" cy="501.42" fill="rgba(239, 150, 229, 1)"></circle>
        <circle r="5" cx="1454.88" cy="693.14" fill="rgba(239, 150, 229, 1)"></circle>
        <circle r="5" cx="1587.8" cy="-78.34" fill="rgba(239, 150, 229, 1)"></circle>
        <circle r="5" cx="1612.46" cy="57.97" fill="rgba(239, 150, 229, 1)"></circle>
        <circle r="5" cx="1582.69" cy="191.18" fill="rgba(239, 150, 229, 1)"></circle>
        <circle r="5" cx="1552.65" cy="397.72" fill="rgba(239, 150, 229, 1)"></circle>
        <circle r="5" cx="1598.08" cy="538.48" fill="rgba(239, 150, 229, 1)"></circle>
        <circle r="5" cx="1594.52" cy="658.43" fill="rgba(239, 150, 229, 1)"></circle>
        <path d="M84.61 542.68L84.61 542.68" stroke="hsl(306.70000000000005, 57%, 100%)" stroke-width="1.5"></path>
        <path d="M84.61 542.68L64.69 641.13" stroke="hsl(306.70000000000005, 57%, 100%)" stroke-width="1.5"></path>
        <path d="M84.61 542.68L203.77 641.83" stroke="hsl(306.70000000000005, 57%, 100%)" stroke-width="1.5"></path>
        <path d="M84.61 542.68L-90.13 497.36" stroke="hsl(306.70000000000005, 57%, 100%)" stroke-width="1.5"></path>
        <path d="M64.69 641.13L64.69 641.13" stroke="hsl(306.70000000000005, 57%, 100%)" stroke-width="1.5"></path>
        <path d="M64.69 641.13L-40.02 699.29" stroke="hsl(306.70000000000005, 57%, 100%)" stroke-width="1.5"></path>
        <path d="M523.46 399.57L523.46 399.57" stroke="hsl(306.70000000000005, 57%, 100%)" stroke-width="1.5"></path>
        <path d="M523.46 399.57L546.22 500.92" stroke="hsl(306.70000000000005, 57%, 100%)" stroke-width="1.5"></path>
        <path d="M523.46 399.57L401.17 512.4" stroke="hsl(306.70000000000005, 57%, 100%)" stroke-width="1.5"></path>
        <path d="M523.46 399.57L645.47 514.52" stroke="hsl(306.70000000000005, 57%, 100%)" stroke-width="1.5"></path>
        <path d="M523.46 399.57L707.42 396.92" stroke="hsl(306.70000000000005, 57%, 100%)" stroke-width="1.5"></path>
        <path d="M645.47 514.52L645.47 514.52" stroke="hsl(306.70000000000005, 57%, 100%)" stroke-width="1.5"></path>
        <path d="M645.47 514.52L546.22 500.92" stroke="hsl(306.70000000000005, 57%, 100%)" stroke-width="1.5"></path>
        <path d="M645.47 514.52L707.42 396.92" stroke="hsl(306.70000000000005, 57%, 100%)" stroke-width="1.5"></path>
        <path d="M645.47 514.52L704.09 648.67" stroke="hsl(306.70000000000005, 57%, 100%)" stroke-width="1.5"></path>
        <path d="M645.47 514.52L526.37 654.04" stroke="hsl(306.70000000000005, 57%, 100%)" stroke-width="1.5"></path>
        <path d="M1154.68 364.28L1154.68 364.28" stroke="hsl(306.70000000000005, 57%, 100%)" stroke-width="1.5"></path>
        <path d="M1154.68 364.28L1253.68 381.86" stroke="hsl(306.70000000000005, 57%, 100%)" stroke-width="1.5"></path>
        <path d="M1154.68 364.28L1243.98 496.76" stroke="hsl(306.70000000000005, 57%, 100%)" stroke-width="1.5"></path>
        <path d="M1408.45 684.54L1408.45 684.54" stroke="hsl(306.70000000000005, 57%, 100%)" stroke-width="1.5"></path>
        <path d="M1408.45 684.54L1411.02 538.18" stroke="hsl(306.70000000000005, 57%, 100%)" stroke-width="1.5"></path>
        <path d="M1408.45 684.54L1259.96 693.87" stroke="hsl(306.70000000000005, 57%, 100%)" stroke-width="1.5"></path>
        <path d="M1408.45 684.54L1564.69 670.49" stroke="hsl(306.70000000000005, 57%, 100%)" stroke-width="1.5"></path>
        <path d="M1609.11 235.63L1609.11 235.63" stroke="hsl(306.70000000000005, 57%, 100%)" stroke-width="1.5"></path>
        <path d="M1609.11 235.63L1571.65 371.3" stroke="hsl(306.70000000000005, 57%, 100%)" stroke-width="1.5"></path>
        <path d="M1609.11 235.63L1610.13 44.34" stroke="hsl(306.70000000000005, 57%, 100%)" stroke-width="1.5"></path>
        <path d="M1609.11 235.63L1408.7 200.38" stroke="hsl(306.70000000000005, 57%, 100%)" stroke-width="1.5"></path>
        <path d="M1609.11 235.63L1431.41 404.94" stroke="hsl(306.70000000000005, 57%, 100%)" stroke-width="1.5"></path>
        <path d="M1609.11 235.63L1388.09 75.45" stroke="hsl(306.70000000000005, 57%, 100%)" stroke-width="1.5"></path>
        <path d="M1609.11 235.63L1575.53 -52.63" stroke="hsl(306.70000000000005, 57%, 100%)" stroke-width="1.5"></path>
        <path d="M-90.13 497.36L-90.13 497.36" stroke="hsl(306.70000000000005, 57%, 100%)" stroke-width="1.5"></path>
        <path d="M-40.02 699.29L-40.02 699.29" stroke="hsl(306.70000000000005, 57%, 100%)" stroke-width="1.5"></path>
        <path d="M-40.02 699.29L84.61 542.68" stroke="hsl(306.70000000000005, 57%, 100%)" stroke-width="1.5"></path>
        <path d="M-40.02 699.29L-90.13 497.36" stroke="hsl(306.70000000000005, 57%, 100%)" stroke-width="1.5"></path>
        <path d="M-40.02 699.29L203.77 641.83" stroke="hsl(306.70000000000005, 57%, 100%)" stroke-width="1.5"></path>
        <path d="M-40.02 699.29L383.28 705.6" stroke="hsl(306.70000000000005, 57%, 100%)" stroke-width="1.5"></path>
        <path d="M-40.02 699.29L401.17 512.4" stroke="hsl(306.70000000000005, 57%, 100%)" stroke-width="1.5"></path>
        <path d="M203.77 641.83L203.77 641.83" stroke="hsl(306.70000000000005, 57%, 100%)" stroke-width="1.5"></path>
        <path d="M203.77 641.83L64.69 641.13" stroke="hsl(306.70000000000005, 57%, 100%)" stroke-width="1.5"></path>
        <path d="M203.77 641.83L383.28 705.6" stroke="hsl(306.70000000000005, 57%, 100%)" stroke-width="1.5"></path>
        <path d="M401.17 512.4L401.17 512.4" stroke="hsl(306.70000000000005, 57%, 100%)" stroke-width="1.5"></path>
        <path d="M401.17 512.4L546.22 500.92" stroke="hsl(306.70000000000005, 57%, 100%)" stroke-width="1.5"></path>
        <path d="M401.17 512.4L526.37 654.04" stroke="hsl(306.70000000000005, 57%, 100%)" stroke-width="1.5"></path>
        <path d="M383.28 705.6L383.28 705.6" stroke="hsl(306.70000000000005, 57%, 100%)" stroke-width="1.5"></path>
        <path d="M383.28 705.6L526.37 654.04" stroke="hsl(306.70000000000005, 57%, 100%)" stroke-width="1.5"></path>
        <path d="M383.28 705.6L401.17 512.4" stroke="hsl(306.70000000000005, 57%, 100%)" stroke-width="1.5"></path>
        <path d="M383.28 705.6L546.22 500.92" stroke="hsl(306.70000000000005, 57%, 100%)" stroke-width="1.5"></path>
        <path d="M383.28 705.6L645.47 514.52" stroke="hsl(306.70000000000005, 57%, 100%)" stroke-width="1.5"></path>
        <path d="M383.28 705.6L64.69 641.13" stroke="hsl(306.70000000000005, 57%, 100%)" stroke-width="1.5"></path>
        <path d="M546.22 500.92L546.22 500.92" stroke="hsl(306.70000000000005, 57%, 100%)" stroke-width="1.5"></path>
        <path d="M546.22 500.92L526.37 654.04" stroke="hsl(306.70000000000005, 57%, 100%)" stroke-width="1.5"></path>
        <path d="M546.22 500.92L707.42 396.92" stroke="hsl(306.70000000000005, 57%, 100%)" stroke-width="1.5"></path>
        <path d="M546.22 500.92L704.09 648.67" stroke="hsl(306.70000000000005, 57%, 100%)" stroke-width="1.5"></path>
        <path d="M526.37 654.04L526.37 654.04" stroke="hsl(306.70000000000005, 57%, 100%)" stroke-width="1.5"></path>
        <path d="M526.37 654.04L704.09 648.67" stroke="hsl(306.70000000000005, 57%, 100%)" stroke-width="1.5"></path>
        <path d="M526.37 654.04L523.46 399.57" stroke="hsl(306.70000000000005, 57%, 100%)" stroke-width="1.5"></path>
        <path d="M707.42 396.92L707.42 396.92" stroke="hsl(306.70000000000005, 57%, 100%)" stroke-width="1.5"></path>
        <path d="M707.42 396.92L836.99 365.04" stroke="hsl(306.70000000000005, 57%, 100%)" stroke-width="1.5"></path>
        <path d="M704.09 648.67L704.09 648.67" stroke="hsl(306.70000000000005, 57%, 100%)" stroke-width="1.5"></path>
        <path d="M704.09 648.67L844.96 654.35" stroke="hsl(306.70000000000005, 57%, 100%)" stroke-width="1.5"></path>
        <path d="M704.09 648.67L838.48 540.28" stroke="hsl(306.70000000000005, 57%, 100%)" stroke-width="1.5"></path>
        <path d="M704.09 648.67L707.42 396.92" stroke="hsl(306.70000000000005, 57%, 100%)" stroke-width="1.5"></path>
        <path d="M836.99 365.04L836.99 365.04" stroke="hsl(306.70000000000005, 57%, 100%)" stroke-width="1.5"></path>
        <path d="M836.99 365.04L972.56 364.51" stroke="hsl(306.70000000000005, 57%, 100%)" stroke-width="1.5"></path>
        <path d="M836.99 365.04L838.48 540.28" stroke="hsl(306.70000000000005, 57%, 100%)" stroke-width="1.5"></path>
        <path d="M836.99 365.04L984.97 528.12" stroke="hsl(306.70000000000005, 57%, 100%)" stroke-width="1.5"></path>
        <path d="M836.99 365.04L645.47 514.52" stroke="hsl(306.70000000000005, 57%, 100%)" stroke-width="1.5"></path>
        <path d="M838.48 540.28L838.48 540.28" stroke="hsl(306.70000000000005, 57%, 100%)" stroke-width="1.5"></path>
        <path d="M838.48 540.28L844.96 654.35" stroke="hsl(306.70000000000005, 57%, 100%)" stroke-width="1.5"></path>
        <path d="M838.48 540.28L984.97 528.12" stroke="hsl(306.70000000000005, 57%, 100%)" stroke-width="1.5"></path>
        <path d="M844.96 654.35L844.96 654.35" stroke="hsl(306.70000000000005, 57%, 100%)" stroke-width="1.5"></path>
        <path d="M844.96 654.35L959.86 712.19" stroke="hsl(306.70000000000005, 57%, 100%)" stroke-width="1.5"></path>
        <path d="M972.56 364.51L972.56 364.51" stroke="hsl(306.70000000000005, 57%, 100%)" stroke-width="1.5"></path>
        <path d="M972.56 364.51L984.97 528.12" stroke="hsl(306.70000000000005, 57%, 100%)" stroke-width="1.5"></path>
        <path d="M972.56 364.51L1154.68 364.28" stroke="hsl(306.70000000000005, 57%, 100%)" stroke-width="1.5"></path>
        <path d="M972.56 364.51L838.48 540.28" stroke="hsl(306.70000000000005, 57%, 100%)" stroke-width="1.5"></path>
        <path d="M972.56 364.51L1151.94 192.39" stroke="hsl(306.70000000000005, 57%, 100%)" stroke-width="1.5"></path>
        <path d="M972.56 364.51L1152.86 551.45" stroke="hsl(306.70000000000005, 57%, 100%)" stroke-width="1.5"></path>
        <path d="M984.97 528.12L984.97 528.12" stroke="hsl(306.70000000000005, 57%, 100%)" stroke-width="1.5"></path>
        <path d="M984.97 528.12L1152.86 551.45" stroke="hsl(306.70000000000005, 57%, 100%)" stroke-width="1.5"></path>
        <path d="M984.97 528.12L1111.56 657.36" stroke="hsl(306.70000000000005, 57%, 100%)" stroke-width="1.5"></path>
        <path d="M984.97 528.12L959.86 712.19" stroke="hsl(306.70000000000005, 57%, 100%)" stroke-width="1.5"></path>
        <path d="M984.97 528.12L844.96 654.35" stroke="hsl(306.70000000000005, 57%, 100%)" stroke-width="1.5"></path>
        <path d="M959.86 712.19L959.86 712.19" stroke="hsl(306.70000000000005, 57%, 100%)" stroke-width="1.5"></path>
        <path d="M959.86 712.19L1111.56 657.36" stroke="hsl(306.70000000000005, 57%, 100%)" stroke-width="1.5"></path>
        <path d="M959.86 712.19L838.48 540.28" stroke="hsl(306.70000000000005, 57%, 100%)" stroke-width="1.5"></path>
        <path d="M959.86 712.19L1152.86 551.45" stroke="hsl(306.70000000000005, 57%, 100%)" stroke-width="1.5"></path>
        <path d="M1151.94 192.39L1151.94 192.39" stroke="hsl(306.70000000000005, 57%, 100%)" stroke-width="1.5"></path>
        <path d="M1151.94 192.39L1274.6 215.22" stroke="hsl(306.70000000000005, 57%, 100%)" stroke-width="1.5"></path>
        <path d="M1151.94 192.39L1154.68 364.28" stroke="hsl(306.70000000000005, 57%, 100%)" stroke-width="1.5"></path>
        <path d="M1151.94 192.39L1299.71 78.63" stroke="hsl(306.70000000000005, 57%, 100%)" stroke-width="1.5"></path>
        <path d="M1151.94 192.39L1253.68 381.86" stroke="hsl(306.70000000000005, 57%, 100%)" stroke-width="1.5"></path>
        <path d="M1152.86 551.45L1152.86 551.45" stroke="hsl(306.70000000000005, 57%, 100%)" stroke-width="1.5"></path>
        <path d="M1152.86 551.45L1243.98 496.76" stroke="hsl(306.70000000000005, 57%, 100%)" stroke-width="1.5"></path>
        <path d="M1152.86 551.45L1111.56 657.36" stroke="hsl(306.70000000000005, 57%, 100%)" stroke-width="1.5"></path>
        <path d="M1152.86 551.45L1259.96 693.87" stroke="hsl(306.70000000000005, 57%, 100%)" stroke-width="1.5"></path>
        <path d="M1111.56 657.36L1111.56 657.36" stroke="hsl(306.70000000000005, 57%, 100%)" stroke-width="1.5"></path>
        <path d="M1111.56 657.36L1259.96 693.87" stroke="hsl(306.70000000000005, 57%, 100%)" stroke-width="1.5"></path>
        <path d="M1243.81 -54.65L1243.81 -54.65" stroke="hsl(306.70000000000005, 57%, 100%)" stroke-width="1.5"></path>
        <path d="M1243.81 -54.65L1299.71 78.63" stroke="hsl(306.70000000000005, 57%, 100%)" stroke-width="1.5"></path>
        <path d="M1243.81 -54.65L1436.01 -57.95" stroke="hsl(306.70000000000005, 57%, 100%)" stroke-width="1.5"></path>
        <path d="M1243.81 -54.65L1388.09 75.45" stroke="hsl(306.70000000000005, 57%, 100%)" stroke-width="1.5"></path>
        <path d="M1299.71 78.63L1299.71 78.63" stroke="hsl(306.70000000000005, 57%, 100%)" stroke-width="1.5"></path>
        <path d="M1299.71 78.63L1388.09 75.45" stroke="hsl(306.70000000000005, 57%, 100%)" stroke-width="1.5"></path>
        <path d="M1299.71 78.63L1274.6 215.22" stroke="hsl(306.70000000000005, 57%, 100%)" stroke-width="1.5"></path>
        <path d="M1299.71 78.63L1408.7 200.38" stroke="hsl(306.70000000000005, 57%, 100%)" stroke-width="1.5"></path>
        <path d="M1274.6 215.22L1274.6 215.22" stroke="hsl(306.70000000000005, 57%, 100%)" stroke-width="1.5"></path>
        <path d="M1274.6 215.22L1408.7 200.38" stroke="hsl(306.70000000000005, 57%, 100%)" stroke-width="1.5"></path>
        <path d="M1253.68 381.86L1253.68 381.86" stroke="hsl(306.70000000000005, 57%, 100%)" stroke-width="1.5"></path>
        <path d="M1253.68 381.86L1243.98 496.76" stroke="hsl(306.70000000000005, 57%, 100%)" stroke-width="1.5"></path>
        <path d="M1253.68 381.86L1274.6 215.22" stroke="hsl(306.70000000000005, 57%, 100%)" stroke-width="1.5"></path>
        <path d="M1243.98 496.76L1243.98 496.76" stroke="hsl(306.70000000000005, 57%, 100%)" stroke-width="1.5"></path>
        <path d="M1243.98 496.76L1411.02 538.18" stroke="hsl(306.70000000000005, 57%, 100%)" stroke-width="1.5"></path>
        <path d="M1243.98 496.76L1259.96 693.87" stroke="hsl(306.70000000000005, 57%, 100%)" stroke-width="1.5"></path>
        <path d="M1243.98 496.76L1111.56 657.36" stroke="hsl(306.70000000000005, 57%, 100%)" stroke-width="1.5"></path>
        <path d="M1259.96 693.87L1259.96 693.87" stroke="hsl(306.70000000000005, 57%, 100%)" stroke-width="1.5"></path>
        <path d="M1259.96 693.87L1411.02 538.18" stroke="hsl(306.70000000000005, 57%, 100%)" stroke-width="1.5"></path>
        <path d="M1436.01 -57.95L1436.01 -57.95" stroke="hsl(306.70000000000005, 57%, 100%)" stroke-width="1.5"></path>
        <path d="M1436.01 -57.95L1575.53 -52.63" stroke="hsl(306.70000000000005, 57%, 100%)" stroke-width="1.5"></path>
        <path d="M1436.01 -57.95L1388.09 75.45" stroke="hsl(306.70000000000005, 57%, 100%)" stroke-width="1.5"></path>
        <path d="M1436.01 -57.95L1299.71 78.63" stroke="hsl(306.70000000000005, 57%, 100%)" stroke-width="1.5"></path>
        <path d="M1388.09 75.45L1388.09 75.45" stroke="hsl(306.70000000000005, 57%, 100%)" stroke-width="1.5"></path>
        <path d="M1388.09 75.45L1408.7 200.38" stroke="hsl(306.70000000000005, 57%, 100%)" stroke-width="1.5"></path>
        <path d="M1388.09 75.45L1274.6 215.22" stroke="hsl(306.70000000000005, 57%, 100%)" stroke-width="1.5"></path>
        <path d="M1408.7 200.38L1408.7 200.38" stroke="hsl(306.70000000000005, 57%, 100%)" stroke-width="1.5"></path>
        <path d="M1431.41 404.94L1431.41 404.94" stroke="hsl(306.70000000000005, 57%, 100%)" stroke-width="1.5"></path>
        <path d="M1431.41 404.94L1411.02 538.18" stroke="hsl(306.70000000000005, 57%, 100%)" stroke-width="1.5"></path>
        <path d="M1431.41 404.94L1571.65 371.3" stroke="hsl(306.70000000000005, 57%, 100%)" stroke-width="1.5"></path>
        <path d="M1431.41 404.94L1253.68 381.86" stroke="hsl(306.70000000000005, 57%, 100%)" stroke-width="1.5"></path>
        <path d="M1431.41 404.94L1408.7 200.38" stroke="hsl(306.70000000000005, 57%, 100%)" stroke-width="1.5"></path>
        <path d="M1431.41 404.94L1565.7 562.36" stroke="hsl(306.70000000000005, 57%, 100%)" stroke-width="1.5"></path>
        <path d="M1431.41 404.94L1243.98 496.76" stroke="hsl(306.70000000000005, 57%, 100%)" stroke-width="1.5"></path>
        <path d="M1411.02 538.18L1411.02 538.18" stroke="hsl(306.70000000000005, 57%, 100%)" stroke-width="1.5"></path>
        <path d="M1575.53 -52.63L1575.53 -52.63" stroke="hsl(306.70000000000005, 57%, 100%)" stroke-width="1.5"></path>
        <path d="M1575.53 -52.63L1610.13 44.34" stroke="hsl(306.70000000000005, 57%, 100%)" stroke-width="1.5"></path>
        <path d="M1575.53 -52.63L1388.09 75.45" stroke="hsl(306.70000000000005, 57%, 100%)" stroke-width="1.5"></path>
        <path d="M1575.53 -52.63L1408.7 200.38" stroke="hsl(306.70000000000005, 57%, 100%)" stroke-width="1.5"></path>
        <path d="M1575.53 -52.63L1299.71 78.63" stroke="hsl(306.70000000000005, 57%, 100%)" stroke-width="1.5"></path>
        <path d="M1610.13 44.34L1610.13 44.34" stroke="hsl(306.70000000000005, 57%, 100%)" stroke-width="1.5"></path>
        <path d="M1610.13 44.34L1436.01 -57.95" stroke="hsl(306.70000000000005, 57%, 100%)" stroke-width="1.5"></path>
        <path d="M1610.13 44.34L1388.09 75.45" stroke="hsl(306.70000000000005, 57%, 100%)" stroke-width="1.5"></path>
        <path d="M1610.13 44.34L1408.7 200.38" stroke="hsl(306.70000000000005, 57%, 100%)" stroke-width="1.5"></path>
        <path d="M1571.65 371.3L1571.65 371.3" stroke="hsl(306.70000000000005, 57%, 100%)" stroke-width="1.5"></path>
        <path d="M1571.65 371.3L1565.7 562.36" stroke="hsl(306.70000000000005, 57%, 100%)" stroke-width="1.5"></path>
        <path d="M1571.65 371.3L1411.02 538.18" stroke="hsl(306.70000000000005, 57%, 100%)" stroke-width="1.5"></path>
        <path d="M1571.65 371.3L1408.7 200.38" stroke="hsl(306.70000000000005, 57%, 100%)" stroke-width="1.5"></path>
        <path d="M1571.65 371.3L1564.69 670.49" stroke="hsl(306.70000000000005, 57%, 100%)" stroke-width="1.5"></path>
        <path d="M1565.7 562.36L1565.7 562.36" stroke="hsl(306.70000000000005, 57%, 100%)" stroke-width="1.5"></path>
        <path d="M1565.7 562.36L1564.69 670.49" stroke="hsl(306.70000000000005, 57%, 100%)" stroke-width="1.5"></path>
        <path d="M1565.7 562.36L1411.02 538.18" stroke="hsl(306.70000000000005, 57%, 100%)" stroke-width="1.5"></path>
        <path d="M1565.7 562.36L1408.45 684.54" stroke="hsl(306.70000000000005, 57%, 100%)" stroke-width="1.5"></path>
        <path d="M1564.69 670.49L1564.69 670.49" stroke="hsl(306.70000000000005, 57%, 100%)" stroke-width="1.5"></path>
        <path d="M1564.69 670.49L1411.02 538.18" stroke="hsl(306.70000000000005, 57%, 100%)" stroke-width="1.5"></path>
        <path d="M1564.69 670.49L1431.41 404.94" stroke="hsl(306.70000000000005, 57%, 100%)" stroke-width="1.5"></path>
        <circle r="25" cx="84.61" cy="542.68" fill="url(#SvgjsRadialGradient2165)"></circle>
        <circle r="25" cx="64.69" cy="641.13" fill="url(#SvgjsRadialGradient2165)"></circle>
        <circle r="25" cx="523.46" cy="399.57" fill="url(#SvgjsRadialGradient2165)"></circle>
        <circle r="25" cx="645.47" cy="514.52" fill="url(#SvgjsRadialGradient2165)"></circle>
        <circle r="25" cx="1154.68" cy="364.28" fill="url(#SvgjsRadialGradient2165)"></circle>
        <circle r="25" cx="1408.45" cy="684.54" fill="url(#SvgjsRadialGradient2165)"></circle>
        <circle r="25" cx="1609.11" cy="235.63" fill="url(#SvgjsRadialGradient2165)"></circle>
        <circle r="5" cx="-90.13" cy="497.36" fill="#f7e0f4"></circle>
        <circle r="5" cx="-40.02" cy="699.29" fill="#f7e0f4"></circle>
        <circle r="5" cx="203.77" cy="641.83" fill="#f7e0f4"></circle>
        <circle r="5" cx="401.17" cy="512.4" fill="#f7e0f4"></circle>
        <circle r="5" cx="383.28" cy="705.6" fill="#f7e0f4"></circle>
        <circle r="5" cx="546.22" cy="500.92" fill="#f7e0f4"></circle>
        <circle r="5" cx="526.37" cy="654.04" fill="#f7e0f4"></circle>
        <circle r="5" cx="707.42" cy="396.92" fill="#f7e0f4"></circle>
        <circle r="5" cx="704.09" cy="648.67" fill="#f7e0f4"></circle>
        <circle r="5" cx="836.99" cy="365.04" fill="#f7e0f4"></circle>
        <circle r="5" cx="838.48" cy="540.28" fill="#f7e0f4"></circle>
        <circle r="5" cx="844.96" cy="654.35" fill="#f7e0f4"></circle>
        <circle r="5" cx="972.56" cy="364.51" fill="#f7e0f4"></circle>
        <circle r="5" cx="984.97" cy="528.12" fill="#f7e0f4"></circle>
        <circle r="5" cx="959.86" cy="712.19" fill="#f7e0f4"></circle>
        <circle r="5" cx="1151.94" cy="192.39" fill="#f7e0f4"></circle>
        <circle r="5" cx="1152.86" cy="551.45" fill="#f7e0f4"></circle>
        <circle r="5" cx="1111.56" cy="657.36" fill="#f7e0f4"></circle>
        <circle r="5" cx="1243.81" cy="-54.65" fill="#f7e0f4"></circle>
        <circle r="5" cx="1299.71" cy="78.63" fill="#f7e0f4"></circle>
        <circle r="5" cx="1274.6" cy="215.22" fill="#f7e0f4"></circle>
        <circle r="5" cx="1253.68" cy="381.86" fill="#f7e0f4"></circle>
        <circle r="5" cx="1243.98" cy="496.76" fill="#f7e0f4"></circle>
        <circle r="5" cx="1259.96" cy="693.87" fill="#f7e0f4"></circle>
        <circle r="5" cx="1436.01" cy="-57.95" fill="#f7e0f4"></circle>
        <circle r="5" cx="1388.09" cy="75.45" fill="#f7e0f4"></circle>
        <circle r="5" cx="1408.7" cy="200.38" fill="#f7e0f4"></circle>
        <circle r="5" cx="1431.41" cy="404.94" fill="#f7e0f4"></circle>
        <circle r="5" cx="1411.02" cy="538.18" fill="#f7e0f4"></circle>
        <circle r="5" cx="1575.53" cy="-52.63" fill="#f7e0f4"></circle>
        <circle r="5" cx="1610.13" cy="44.34" fill="#f7e0f4"></circle>
        <circle r="5" cx="1571.65" cy="371.3" fill="#f7e0f4"></circle>
        <circle r="5" cx="1565.7" cy="562.36" fill="#f7e0f4"></circle>
        <circle r="5" cx="1564.69" cy="670.49" fill="#f7e0f4"></circle>
    </g>
    <defs>
        <mask id="SvgjsMask2163">
            <rect width="1440" height="560" fill="#ffffff"></rect>
        </mask>
        <linearGradient x1="15.28%" y1="-39.29%" x2="84.72%" y2="139.29%" gradientUnits="userSpaceOnUse" id="SvgjsLinearGradient2164">
            <stop stop-color="rgba(0, 0, 0, 1)" offset="0"></stop>
            <stop stop-color="rgba(26, 15, 27, 1)" offset="0.48"></stop>
            <stop stop-color="rgba(75, 29, 73, 1)" offset="1"></stop>
        </linearGradient>
        <radialGradient id="SvgjsRadialGradient2165">
            <stop stop-color="#ffffff" offset="0.1"></stop>
            <stop stop-color="rgba(238, 193, 233, 1)" offset="0.2"></stop>
            <stop stop-color="rgba(238, 193, 233, 0)" offset="1"></stop>
        </radialGradient>
    </defs>
</svg>