<svg xmlns="http://www.w3.org/2000/svg" xmlns:svgjs="http://svgjs.com/svgjs" xmlns:xlink="http://www.w3.org/1999/xlink" width="288" height="288"><svg xmlns="http://www.w3.org/2000/svg" width="288" height="288" viewBox="0 0 64 64"><path fill="#de96e4" d="M58,5H6a6,6,0,0,0-6,6V53a6,6,0,0,0,6,6H58a6,6,0,0,0,6-6V11A6,6,0,0,0,58,5Zm-4,6h4v4H54Zm-6,0h4v4H48Zm-6,0h4v4H42ZM60,53a2,2,0,0,1-2,2H6a2,2,0,0,1-2-2V21H60Z" class="color000 svgShape"/><path fill="#de96e4" d="M22.74 25.47l-11.2 11.2A2 2 0 0 0 11 38.08a2 2 0 0 0 .58 1.42l11.2 11.19 2.83-2.82-9.79-9.79 9.79-9.78zM41.26 25.47L38.43 28.3l9.79 9.78-9.79 9.79 2.83 2.82L52.46 39.5A2 2 0 0 0 53 38.08a2 2 0 0 0-.58-1.41z" class="color000 svgShape"/><rect width="25.5" height="4" x="19.25" y="36.5" fill="#de96e4" class="color000 svgShape" transform="rotate(-78.69 32 38.502)"/></svg></svg>